<svg width="36" height="36" viewBox="0 0 36 36" fill="none" xmlns="http://www.w3.org/2000/svg">
  <rect width="36" height="36" rx="10" fill="oklch(86.133% 0.141 139.549)"/>
  <g clip-path="url(#clip0)">
    <path d="M18.83 8.18C18.32 7.94 17.68 7.94 17.17 8.18L10.6 11.08C10.23 11.25 10 11.61 10 12C10 12.39 10.23 12.75 10.6 12.92L17.17 15.82C17.68 16.06 18.32 16.06 18.83 15.82L25.4 12.92C25.77 12.75 26 12.39 26 12C26 11.61 25.77 11.25 25.4 11.08L18.83 8.18Z" stroke="oklch(17.226% 0.028 139.549)" stroke-width="1.8" stroke-linecap="round" stroke-linejoin="round"/>
    <path d="M10.6 17.14L17.17 20.04C17.68 20.28 18.32 20.28 18.83 20.04L25.4 17.14C25.77 16.97 26 16.61 26 16.22C26 15.83 25.77 15.47 25.4 15.3" stroke="oklch(17.226% 0.028 139.549)" stroke-width="1.8" stroke-linecap="round" stroke-linejoin="round"/>
    <path d="M10.6 21.37L17.17 24.27C17.68 24.51 18.32 24.51 18.83 24.27L25.4 21.37C25.77 21.2 26 20.84 26 20.45" stroke="oklch(17.226% 0.028 139.549)" stroke-width="1.8" stroke-linecap="round" stroke-linejoin="round"/>
  </g>
  <defs>
    <clipPath id="clip0">
      <rect width="20" height="20" fill="white" transform="translate(8 8)"/>
    </clipPath>
  </defs>
</svg>
